# xmcd
#
# Track frame offsets:
#	150
#	20722
#	44263
#	68686
#	95635
#	122774
#	142225
#	167149
#	190743
#	211159
#	232072
#
# Disc length: 3345 seconds
#
# Revision: 0
# Processed by: cddbd v1.5.2PL0 Copyright (c) Steve Scherf et al.
# Submitted via: dBpowerAMP V4.0
#
DISCID=a10d0f0b
DTITLE=popa chubby - brooklin basement blues
DYEAR=1900
DGENRE=Blues
TTITLE0=You Can't Keep a Brother Down
TTITLE1=You Can't Keep a Brother Down
TTITLE2=You Can't Keep a Brother Down
TTITLE3=You Can't Keep a Brother Down
TTITLE4=You Can't Keep a Brother Down
TTITLE5=You Can't Keep a Brother Down
TTITLE6=You Can't Keep a Brother Down
TTITLE7=You Can't Keep a Brother Down
TTITLE8=You Can't Keep a Brother Down
TTITLE9=You Can't Keep a Brother Down
TTITLE10=You Can't Keep a Brother Down
EXTD=
EXTT0=
EXTT1=
EXTT2=
EXTT3=
EXTT4=
EXTT5=
EXTT6=
EXTT7=
EXTT8=
EXTT9=
EXTT10=
PLAYORDER=
